<svg viewBox="0 0 34 34" fill="none" xmlns="http://www.w3.org/2000/svg">
<path d="M2 8.66667V5.33333C2 4.44928 2.35119 3.60143 2.97631 2.97631C3.60143 2.35119 4.44928 2 5.33333 2H8.66667M25.3333 2H28.6667C29.5507 2 30.3986 2.35119 31.0237 2.97631C31.6488 3.60143 32 4.44928 32 5.33333V8.66667M32 25.3333V28.6667C32 29.5507 31.6488 30.3986 31.0237 31.0237C30.3986 31.6488 29.5507 32 28.6667 32H25.3333M8.66667 32H5.33333C4.44928 32 3.60143 31.6488 2.97631 31.0237C2.35119 30.3986 2 29.5507 2 28.6667V25.3333M10.3333 10.3333H23.6667C24.5871 10.3333 25.3333 11.0795 25.3333 12V22C25.3333 22.9205 24.5871 23.6667 23.6667 23.6667H10.3333C9.41286 23.6667 8.66667 22.9205 8.66667 22V12C8.66667 11.0795 9.41286 10.3333 10.3333 10.3333Z" stroke="white" stroke-width="3" stroke-linecap="round" stroke-linejoin="round"/>
</svg>
