<svg viewBox="0 0 30 34" fill="none" xmlns="http://www.w3.org/2000/svg">
<path fill-rule="evenodd" clip-rule="evenodd" d="M12.8571 2.125C12.8571 1.56141 13.0829 1.02091 13.4848 0.622398C13.8866 0.223883 14.4317 0 15 0C15.5683 0 16.1134 0.223883 16.5152 0.622398C16.9171 1.02091 17.1429 1.56141 17.1429 2.125V13.8125C17.1429 14.0943 17.2557 14.3645 17.4567 14.5638C17.6576 14.7631 17.9301 14.875 18.2143 14.875C18.4984 14.875 18.771 14.7631 18.9719 14.5638C19.1728 14.3645 19.2857 14.0943 19.2857 13.8125V4.25C19.2857 3.68641 19.5115 3.14591 19.9133 2.7474C20.3152 2.34888 20.8602 2.125 21.4286 2.125C21.9969 2.125 22.5419 2.34888 22.9438 2.7474C23.3457 3.14591 23.5714 3.68641 23.5714 4.25V13.8125C23.5714 14.0943 23.6843 14.3645 23.8852 14.5638C24.0862 14.7631 24.3587 14.875 24.6429 14.875C24.927 14.875 25.1995 14.7631 25.4005 14.5638C25.6014 14.3645 25.7143 14.0943 25.7143 13.8125V8.5C25.7143 7.93641 25.94 7.39591 26.3419 6.9974C26.7438 6.59888 27.2888 6.375 27.8571 6.375C28.4255 6.375 28.9705 6.59888 29.3724 6.9974C29.7742 7.39591 30 7.93641 30 8.5V19.125C30 21.0784 29.612 23.0127 28.8582 24.8174C28.1044 26.6221 26.9995 28.2619 25.6066 29.6432C24.2137 31.0245 22.5601 32.1202 20.7402 32.8677C18.9204 33.6152 16.9698 34 15 34C13.0302 34 11.0796 33.6152 9.25975 32.8677C7.43986 32.1202 5.78627 31.0245 4.3934 29.6432C3.00052 28.2619 1.89563 26.6221 1.14181 24.8174C0.387985 23.0127 -1.9367e-06 21.0784 -1.90735e-06 19.125V14.875C-1.90735e-06 14.3114 0.225763 13.7709 0.627626 13.3724C1.02949 12.9739 1.57453 12.75 2.14286 12.75C2.71118 12.75 3.25622 12.9739 3.65808 13.3724C4.05995 13.7709 4.28571 14.3114 4.28571 14.875V20.1875C4.28571 20.4693 4.39859 20.7395 4.59953 20.9388C4.80046 21.1381 5.07298 21.25 5.35714 21.25C5.6413 21.25 5.91382 21.1381 6.11476 20.9388C6.31569 20.7395 6.42857 20.4693 6.42857 20.1875V4.25C6.42857 3.68641 6.65433 3.14591 7.0562 2.7474C7.45806 2.34888 8.00311 2.125 8.57143 2.125C9.13975 2.125 9.68479 2.34888 10.0867 2.7474C10.4885 3.14591 10.7143 3.68641 10.7143 4.25V13.8125C10.7143 14.0943 10.8272 14.3645 11.0281 14.5638C11.229 14.7631 11.5016 14.875 11.7857 14.875C12.0699 14.875 12.3424 14.7631 12.5433 14.5638C12.7443 14.3645 12.8571 14.0943 12.8571 13.8125V2.125Z" fill="white"/>
</svg>
