<svg viewBox="0 0 30 30" fill="none" xmlns="http://www.w3.org/2000/svg">
<path fill-rule="evenodd" clip-rule="evenodd" d="M15 30C18.9782 30 22.7936 28.4196 25.6066 25.6066C28.4196 22.7936 30 18.9782 30 15C30 11.0218 28.4196 7.20644 25.6066 4.3934C22.7936 1.58035 18.9782 0 15 0C11.0218 0 7.20644 1.58035 4.3934 4.3934C1.58035 7.20644 0 11.0218 0 15C0 18.9782 1.58035 22.7936 4.3934 25.6066C7.20644 28.4196 11.0218 30 15 30ZM16.875 9.375C16.875 8.87772 16.6775 8.40081 16.3258 8.04918C15.9742 7.69754 15.4973 7.5 15 7.5C14.5027 7.5 14.0258 7.69754 13.6742 8.04918C13.3225 8.40081 13.125 8.87772 13.125 9.375V13.125H9.375C8.87772 13.125 8.40081 13.3225 8.04918 13.6742C7.69754 14.0258 7.5 14.5027 7.5 15C7.5 15.4973 7.69754 15.9742 8.04918 16.3258C8.40081 16.6775 8.87772 16.875 9.375 16.875H13.125V20.625C13.125 21.1223 13.3225 21.5992 13.6742 21.9508C14.0258 22.3025 14.5027 22.5 15 22.5C15.4973 22.5 15.9742 22.3025 16.3258 21.9508C16.6775 21.5992 16.875 21.1223 16.875 20.625V16.875H20.625C21.1223 16.875 21.5992 16.6775 21.9508 16.3258C22.3025 15.9742 22.5 15.4973 22.5 15C22.5 14.5027 22.3025 14.0258 21.9508 13.6742C21.5992 13.3225 21.1223 13.125 20.625 13.125H16.875V9.375Z" fill="white"/>
</svg>
