<svg viewBox="0 0 34 34" fill="none" xmlns="http://www.w3.org/2000/svg">
<path d="M32 32L22 22M13.6667 8.66667V13.6667M13.6667 13.6667V18.6667M13.6667 13.6667H18.6667M13.6667 13.6667H8.66667M25.3333 13.6667C25.3333 15.1988 25.0316 16.7158 24.4453 18.1313C23.859 19.5468 22.9996 20.8329 21.9162 21.9162C20.8329 22.9996 19.5468 23.859 18.1313 24.4453C16.7158 25.0316 15.1988 25.3333 13.6667 25.3333C12.1346 25.3333 10.6175 25.0316 9.20203 24.4453C7.78656 23.859 6.50044 22.9996 5.41709 21.9162C4.33374 20.8329 3.47438 19.5468 2.88807 18.1313C2.30177 16.7158 2 15.1988 2 13.6667C2 10.5725 3.22916 7.60501 5.41709 5.41709C7.60501 3.22916 10.5725 2 13.6667 2C16.7609 2 19.7283 3.22916 21.9162 5.41709C24.1042 7.60501 25.3333 10.5725 25.3333 13.6667Z" stroke="white" stroke-width="3" stroke-linecap="round" stroke-linejoin="round"/>
</svg>
